<?xml version="1.0" encoding="utf-8"?>
<!-- Generator: Adobe Illustrator 27.9.1, SVG Export Plug-In . SVG Version: 6.00 Build 0)  -->
<svg version="1.1" xmlns="http://www.w3.org/2000/svg" xmlns:xlink="http://www.w3.org/1999/xlink" x="0px" y="0px"
	 viewBox="0 0 381.4 61.9" style="enable-background:new 0 0 381.4 61.9;" xml:space="preserve">
<style type="text/css">
	.st0{fill:#2B2F38;}
</style>
<g id="Layer_1">
	<g>
		<g>
			<g>
				<g>
					<path class="st0" d="M23.9,14v4.6h-3.5v-4.8c0-5.9-2.3-10.5-8.4-10.5S3.6,7.8,3.6,13.8v28.8C3.6,48.5,5.9,53,12,53
						s8.4-4.4,8.4-10.4V36h3.5v6.3c0,8-3.5,14-12,14c-8.5,0-12-6-12-14V14C0,6,3.5,0,12,0C20.4,0,23.9,6,23.9,14z"/>
				</g>
			</g>
			<g>
				<g>
					<path class="st0" d="M60.9,26.1v3.3H45.8v23.1H64v3.3H42.1V0.5H64v3.3H45.8v22.3H60.9z"/>
				</g>
			</g>
			<g>
				<g>
					<path class="st0" d="M82,14c0-8.1,3.7-14,12.1-14c8.6,0,12.3,5.9,12.3,14v28.4c0,8.1-3.7,14-12.3,14c-8.4,0-12.1-5.9-12.1-14
						V14z M85.6,42.6c0,6,2.4,10.5,8.5,10.5c6.2,0,8.6-4.4,8.6-10.5V13.8c0-6-2.5-10.5-8.6-10.5c-6.1,0-8.5,4.4-8.5,10.5V42.6z"/>
				</g>
			</g>
			<g>
				<g>
					<path class="st0" d="M113.6,55.9h-1.2v-7h3.5v6.7l-2.3,6.3H112L113.6,55.9z"/>
				</g>
			</g>
			<g>
				<g>
					<path class="st0" d="M134.2,14c0-8.2,3.7-14,12.2-14c8.5,0,12.2,5.9,12.2,14v28.4c0,8.1-3.7,14-12.2,14
						c-8.5,0-12.2-5.9-12.2-14V14z M137.9,42.5c0,6.1,2.5,10.5,8.6,10.5s8.6-4.4,8.6-10.5V13.8c0-6-2.5-10.5-8.6-10.5
						s-8.6,4.4-8.6,10.5V42.5z"/>
				</g>
			</g>
			<g>
				<g>
					<path class="st0" d="M176.7,14c0-8.2,3.7-14,12.2-14s12.2,5.9,12.2,14v28.4c0,8.1-3.7,14-12.2,14s-12.2-5.9-12.2-14V14z
						 M180.3,42.5c0,6.1,2.5,10.5,8.6,10.5c6.1,0,8.6-4.4,8.6-10.5V13.8c0-6-2.5-10.5-8.6-10.5c-6.1,0-8.6,4.4-8.6,10.5V42.5z"/>
				</g>
			</g>
			<g>
				<g>
					<path class="st0" d="M219.1,14c0-8.2,3.7-14,12.2-14c8.5,0,12.2,5.9,12.2,14v28.4c0,8.1-3.7,14-12.2,14
						c-8.5,0-12.2-5.9-12.2-14V14z M222.8,42.5c0,6.1,2.5,10.5,8.6,10.5s8.6-4.4,8.6-10.5V13.8c0-6-2.5-10.5-8.6-10.5
						s-8.6,4.4-8.6,10.5V42.5z"/>
				</g>
			</g>
			<g>
				<g>
					<path class="st0" d="M251.5,55.9h-1.2v-7h3.5v6.7l-2.3,6.3h-1.6L251.5,55.9z"/>
				</g>
			</g>
			<g>
				<g>
					<path class="st0" d="M272.2,14c0-8.2,3.7-14,12.2-14c8.5,0,12.2,5.9,12.2,14v28.4c0,8.1-3.7,14-12.2,14
						c-8.5,0-12.2-5.9-12.2-14V14z M275.8,42.5c0,6.1,2.5,10.5,8.6,10.5s8.6-4.4,8.6-10.5V13.8c0-6-2.5-10.5-8.6-10.5
						s-8.6,4.4-8.6,10.5V42.5z"/>
				</g>
			</g>
			<g>
				<g>
					<path class="st0" d="M314.6,14c0-8.2,3.7-14,12.2-14c8.5,0,12.2,5.9,12.2,14v28.4c0,8.1-3.7,14-12.2,14
						c-8.5,0-12.2-5.9-12.2-14V14z M318.3,42.5c0,6.1,2.5,10.5,8.6,10.5s8.6-4.4,8.6-10.5V13.8c0-6-2.5-10.5-8.6-10.5
						s-8.6,4.4-8.6,10.5V42.5z"/>
				</g>
			</g>
			<g>
				<g>
					<path class="st0" d="M357.1,14c0-8.2,3.7-14,12.2-14c8.5,0,12.2,5.9,12.2,14v28.4c0,8.1-3.7,14-12.2,14
						c-8.5,0-12.2-5.9-12.2-14V14z M360.7,42.5c0,6.1,2.5,10.5,8.6,10.5s8.6-4.4,8.6-10.5V13.8c0-6-2.5-10.5-8.6-10.5
						s-8.6,4.4-8.6,10.5V42.5z"/>
				</g>
			</g>
		</g>
	</g>
</g>
<g id="Layer_2">
</g>
</svg>
